<svg width="1200" height="720" viewBox="0 0 1200 720" fill="none" xmlns="http://www.w3.org/2000/svg">
  <rect width="1200" height="720" rx="18" fill="#0A0D10"/>
  <rect x="32" y="28" width="1136" height="664" rx="12" fill="#05080A" stroke="#2B333A" stroke-width="2"/>
  <g font-family="Menlo, Consolas, monospace">
    <text x="58" y="72" fill="#7EE787" font-size="24" font-weight="700">Runrate</text>
    <text x="180" y="72" fill="#73808A" font-size="16">30d  codex  hybrid</text>
  </g>

  <rect x="56" y="104" width="680" height="310" rx="6" fill="#0D1418" stroke="#253039"/>
  <polyline points="92,360 132,332 172,345 212,290 252,268 292,316 332,236 372,184 412,246 452,202 492,142 532,276 572,226 612,310 652,252 696,168" stroke="#7EE787" stroke-width="5" fill="none" stroke-linejoin="round"/>
  <polyline points="92,382 132,356 172,368 212,326 252,292 292,336 332,276 372,236 412,296 452,262 492,214 532,320 572,284 612,344 652,304 696,254" stroke="#56D4DD" stroke-width="4" fill="none" stroke-linejoin="round"/>
  <g stroke="#1D2730" stroke-width="1">
    <line x1="80" y1="168" x2="712" y2="168"/>
    <line x1="80" y1="230" x2="712" y2="230"/>
    <line x1="80" y1="292" x2="712" y2="292"/>
    <line x1="80" y1="354" x2="712" y2="354"/>
  </g>

  <rect x="760" y="104" width="180" height="150" rx="6" fill="#0D1418" stroke="#253039"/>
  <circle cx="850" cy="179" r="48" stroke="#26313A" stroke-width="18"/>
  <path d="M850 131a48 48 0 1 1-43.5 68.3" stroke="#7EE787" stroke-width="18" stroke-linecap="round"/>
  <path d="M806.5 199.3A48 48 0 0 1 850 131" stroke="#D2A8FF" stroke-width="18" stroke-linecap="round"/>

  <rect x="964" y="104" width="180" height="150" rx="6" fill="#0D1418" stroke="#253039"/>
  <path d="M1000 208a58 58 0 1 1 108 0" stroke="#26313A" stroke-width="18" fill="none"/>
  <path d="M1000 208a58 58 0 0 1 86-50" stroke="#F2C94C" stroke-width="18" fill="none" stroke-linecap="round"/>
  <circle cx="1054" cy="208" r="7" fill="#E6EDF3"/>
  <line x1="1054" y1="208" x2="1084" y2="166" stroke="#E6EDF3" stroke-width="4" stroke-linecap="round"/>

  <rect x="760" y="276" width="384" height="138" rx="6" fill="#0D1418" stroke="#253039"/>
  <g transform="translate(796 306)">
    <rect x="0" y="58" width="26" height="34" fill="#56D4DD"/>
    <rect x="0" y="18" width="26" height="40" fill="#7EE787"/>
    <rect x="50" y="72" width="26" height="20" fill="#56D4DD"/>
    <rect x="50" y="38" width="26" height="34" fill="#7EE787"/>
    <rect x="100" y="48" width="26" height="44" fill="#56D4DD"/>
    <rect x="100" y="10" width="26" height="38" fill="#7EE787"/>
    <rect x="150" y="66" width="26" height="26" fill="#56D4DD"/>
    <rect x="150" y="28" width="26" height="38" fill="#7EE787"/>
    <rect x="200" y="42" width="26" height="50" fill="#56D4DD"/>
    <rect x="200" y="0" width="26" height="42" fill="#7EE787"/>
    <rect x="250" y="76" width="26" height="16" fill="#56D4DD"/>
    <rect x="250" y="36" width="26" height="40" fill="#7EE787"/>
    <rect x="300" y="52" width="26" height="40" fill="#56D4DD"/>
    <rect x="300" y="20" width="26" height="32" fill="#7EE787"/>
  </g>

  <rect x="56" y="444" width="248" height="158" rx="6" fill="#0D1418" stroke="#253039"/>
  <g transform="translate(88 490)">
    <rect x="0" y="44" width="18" height="38" fill="#7EE787"/><rect x="30" y="28" width="18" height="54" fill="#7EE787"/><rect x="60" y="58" width="18" height="24" fill="#7EE787"/><rect x="90" y="14" width="18" height="68" fill="#7EE787"/><rect x="120" y="34" width="18" height="48" fill="#7EE787"/><rect x="150" y="6" width="18" height="76" fill="#7EE787"/><rect x="180" y="46" width="18" height="36" fill="#7EE787"/>
  </g>

  <rect x="328" y="444" width="248" height="158" rx="6" fill="#0D1418" stroke="#253039"/>
  <polyline points="360,554 390,536 420,544 450,508 480,520 510,474 540,492" stroke="#F2C94C" stroke-width="5" fill="none" stroke-linejoin="round"/>

  <rect x="600" y="444" width="248" height="158" rx="6" fill="#0D1418" stroke="#253039"/>
  <g fill="#56D4DD">
    <rect x="636" y="536" width="32" height="36"/><rect x="684" y="500" width="32" height="72"/><rect x="732" y="522" width="32" height="50"/><rect x="780" y="472" width="32" height="100"/>
  </g>

  <rect x="872" y="444" width="272" height="158" rx="6" fill="#0D1418" stroke="#253039"/>
  <g font-family="Menlo, Consolas, monospace">
    <text x="912" y="536" fill="#F2C94C" font-size="56" font-weight="700">$2.84</text>
    <text x="912" y="572" fill="#73808A" font-size="14">q quit  t $ h a  left right</text>
  </g>
</svg>
